<svg width="32" height="32" viewBox="0 0 32 32" fill="none" xmlns="http://www.w3.org/2000/svg">
<path d="M10.0614 18.2253L9.31883 20.9975L6.6047 21.0549C5.79358 19.5504 5.3335 17.8292 5.3335 16C5.3335 14.2312 5.76366 12.5632 6.52616 11.0945H6.52675L8.94308 11.5375L10.0016 13.9393C9.78004 14.5852 9.65929 15.2785 9.65929 16C9.65937 16.783 9.8012 17.5332 10.0614 18.2253Z" fill="#FBBB00"/>
<path d="M26.4807 14.0073C26.6032 14.6526 26.667 15.3189 26.667 16C26.667 16.7637 26.5867 17.5086 26.4338 18.2271C25.9145 20.6722 24.5577 22.8073 22.6782 24.3182L22.6776 24.3177L19.6341 24.1624L19.2034 21.4734C20.4505 20.742 21.4252 19.5974 21.9386 18.2271H16.2349V14.0073H22.0218H26.4807Z" fill="#518EF8"/>
<path d="M22.6772 24.3176L22.6777 24.3182C20.8498 25.7875 18.5277 26.6666 16 26.6666C11.9378 26.6666 8.40612 24.3962 6.60449 21.0549L10.0612 18.2253C10.962 20.6294 13.2811 22.3408 16 22.3408C17.1686 22.3408 18.2634 22.0249 19.2029 21.4734L22.6772 24.3176Z" fill="#28B446"/>
<path d="M22.8089 7.78892L19.3533 10.6179C18.381 10.0102 17.2317 9.65908 16.0004 9.65908C13.22 9.65908 10.8575 11.449 10.0018 13.9393L6.52695 11.0944H6.52637C8.30162 7.67171 11.8779 5.33325 16.0004 5.33325C18.5885 5.33325 20.9615 6.25517 22.8089 7.78892Z" fill="#F14336"/>
</svg>
